<svg xmlns="http://www.w3.org/2000/svg" viewBox="11 6 42 44" fill="none">
  <!-- Brain shape - fills entire favicon area -->
  <path d="
    M32 8
    C28 8 25 9 23 11
    C20 11.5 17 14 16 18
    C14.5 19 13 22 13 25
    C13 28 14 30.5 16 32
    C15 34 15 36 16 38
    C17 41 19 43.5 22 45
    C24 46.5 27 48 30 48.5
    L32 49
    L34 48.5
    C37 48 40 46.5 42 45
    C45 43.5 47 41 48 38
    C49 36 49 34 48 32
    C50 30.5 51 28 51 25
    C51 22 49.5 19 48 18
    C47 14 44 11.5 41 11
    C39 9 36 8 32 8Z"
    fill="#818cf8" opacity="0.9"/>

  <!-- Left hemisphere darker shade -->
  <path d="
    M32 8
    C28 8 25 9 23 11
    C20 11.5 17 14 16 18
    C14.5 19 13 22 13 25
    C13 28 14 30.5 16 32
    C15 34 15 36 16 38
    C17 41 19 43.5 22 45
    C24 46.5 27 48 30 48.5
    L32 49
    V8Z"
    fill="#6366f1" opacity="0.35"/>

  <!-- Central fissure -->
  <path d="M32 10 C31 16 33 22 31 28 C33 34 31 40 32 47" stroke="#4f46e5" stroke-width="1.5" stroke-linecap="round" fill="none" opacity="0.7"/>

  <!-- Brain folds LEFT -->
  <path d="M17 22 C20 20 24 22 28 19 C30 18 31 19 31 20" stroke="#6366f1" stroke-width="1.8" stroke-linecap="round" fill="none" opacity="0.7"/>
  <path d="M15 28 C18 26 21 29 25 26 C28 25 30 27 31 28" stroke="#6366f1" stroke-width="1.8" stroke-linecap="round" fill="none" opacity="0.7"/>
  <path d="M16 34 C19 33 22 35 26 33 C28 32 30 34 31 35" stroke="#6366f1" stroke-width="1.8" stroke-linecap="round" fill="none" opacity="0.7"/>
  <path d="M18 40 C21 39 24 41 28 39 C30 38.5 31 40 31.5 41" stroke="#6366f1" stroke-width="1.6" stroke-linecap="round" fill="none" opacity="0.6"/>

  <!-- Brain folds RIGHT -->
  <path d="M47 22 C44 20 40 22 36 19 C34 18 33 19 33 20" stroke="#6366f1" stroke-width="1.8" stroke-linecap="round" fill="none" opacity="0.7"/>
  <path d="M49 28 C46 26 43 29 39 26 C36 25 34 27 33 28" stroke="#6366f1" stroke-width="1.8" stroke-linecap="round" fill="none" opacity="0.7"/>
  <path d="M48 34 C45 33 42 35 38 33 C36 32 34 34 33 35" stroke="#6366f1" stroke-width="1.8" stroke-linecap="round" fill="none" opacity="0.6"/>
  <path d="M46 40 C43 39 40 41 36 39 C34 38.5 33 40 32.5 41" stroke="#6366f1" stroke-width="1.6" stroke-linecap="round" fill="none" opacity="0.6"/>

  <!-- AI Neural network nodes -->
  <circle cx="22" cy="21" r="2" fill="#22d3ee" opacity="0.85"/>
  <circle cx="42" cy="21" r="2" fill="#22d3ee" opacity="0.85"/>
  <circle cx="32" cy="26" r="2.2" fill="#22d3ee" opacity="0.95"/>
  <circle cx="20" cy="33" r="1.8" fill="#22d3ee" opacity="0.75"/>
  <circle cx="44" cy="33" r="1.8" fill="#22d3ee" opacity="0.75"/>

  <!-- Neural connections -->
  <line x1="22" y1="21" x2="32" y2="26" stroke="#22d3ee" stroke-width="0.9" opacity="0.45"/>
  <line x1="42" y1="21" x2="32" y2="26" stroke="#22d3ee" stroke-width="0.9" opacity="0.45"/>
  <line x1="20" y1="33" x2="32" y2="26" stroke="#22d3ee" stroke-width="0.7" opacity="0.35"/>
  <line x1="44" y1="33" x2="32" y2="26" stroke="#22d3ee" stroke-width="0.7" opacity="0.35"/>
  <line x1="22" y1="21" x2="20" y2="33" stroke="#22d3ee" stroke-width="0.6" opacity="0.3"/>
  <line x1="42" y1="21" x2="44" y2="33" stroke="#22d3ee" stroke-width="0.6" opacity="0.3"/>

  <!-- Chart line overlay -->
  <path d="M10 44 L16 40 L22 42 L28 34 L34 37 L40 30 L46 26 L53 21"
    stroke="#34d399" stroke-width="3.2" stroke-linecap="round" stroke-linejoin="round" fill="none"/>

  <!-- Chart data point highlights -->
  <circle cx="34" cy="37" r="1.5" fill="#34d399" opacity="0.8"/>
  <circle cx="46" cy="26" r="1.5" fill="#34d399" opacity="0.8"/>
</svg>
